<?xml version="1.0" encoding="UTF-8"?>
<svg width="14px" height="14px" viewBox="0 0 14 14" version="1.1" xmlns="http://www.w3.org/2000/svg" xmlns:xlink="http://www.w3.org/1999/xlink">
    <title>tririga-favicon-dark-16px copy</title>
    <defs>
        <linearGradient x1="100%" y1="28.8285409%" x2="3.41275568%" y2="28.8285409%" id="linearGradient-1">
            <stop stop-color="#7EA7FF" offset="0%"></stop>
            <stop stop-color="#BE95FF" stop-opacity="0" offset="100%"></stop>
        </linearGradient>
        <linearGradient x1="18.9054056%" y1="136.524947%" x2="79.6718548%" y2="-31.6063743%" id="linearGradient-2">
            <stop stop-color="#BE95FF" offset="0%"></stop>
            <stop stop-color="#78A9FF" offset="100%"></stop>
        </linearGradient>
        <linearGradient x1="50%" y1="0%" x2="24.4897959%" y2="50%" id="linearGradient-3">
            <stop stop-color="#78A9FF" offset="0%"></stop>
            <stop stop-color="#BE95FF" offset="100%"></stop>
        </linearGradient>
    </defs>
    <g id="Page-1" stroke="none" stroke-width="1" fill="none" fill-rule="evenodd">
        <g id="tririga-favicon-dark-16px" transform="translate(-1.000000, -1.000000)" fill-rule="nonzero">
            <g id="tririga-favicon-dark-16px-copy" transform="translate(1.000000, 1.000000)">
                <path d="M13,5 C13.5522847,5 14,5.44771525 14,6 L14,14 L9,14 L9,6 C9,5.44771525 9.4477153,5 10,5 L13,5 Z M13,6 L10,6 L10,13 L13,13 L13,6 Z" id="Combined-Shape" fill="url(#linearGradient-1)"></path>
                <g id="Group">
                    <path d="M4,9 L4,11 L3,11 L3,9 L4,9 Z M7,9 L7,11 L6,11 L6,9 L7,9 Z M4,6 L4,8 L3,8 L3,6 L4,6 Z M7,6 L7,8 L6,8 L6,6 L7,6 Z M4,3 L4,5 L3,5 L3,3 L4,3 Z M7,3 L7,5 L6,5 L6,3 L7,3 Z" id="Combined-Shape" fill="url(#linearGradient-2)"></path>
                    <path d="M10,5 L10,1 C10,0.44771525 9.55228475,0 9,0 L1,0 C0.44771525,0 0,0.44771525 0,1 L0,14 L10,14 L10,5 Z M1,1 L9,1 L9,13 L1,13 L1,1 Z" id="path14" fill="url(#linearGradient-3)"></path>
                </g>
            </g>
        </g>
    </g>
</svg>